<?xml version="1.0" encoding="UTF-8"?>
<svg xmlns="http://www.w3.org/2000/svg" xmlns:xlink="http://www.w3.org/1999/xlink" id="Layer_2" width="426.512" height="452.221" viewBox="0 0 426.512 452.221">
  <defs>
    <style>.cls-1{fill:#fff;}.cls-2{fill:#454867;}.cls-3{fill:#ffcd82;}.cls-4{fill:#c4986e;}.cls-5{fill:#7080e2;}.cls-6{clip-path:url(#clippath-1);}.cls-7{fill:#e9ece4;}.cls-8{opacity:.4;}.cls-9{fill:#171c3a;}.cls-10{fill:#00fa6c;}.cls-11{fill:#f2f4ef;}.cls-12{fill:#8b99ee;}.cls-13{clip-path:url(#clippath);}.cls-14{fill:none;}.cls-15{fill:#496966;}.cls-16{fill:#99ffe6;}.cls-17{fill:#6f8986;}.cls-18{fill:#fafaf9;}.cls-19{fill:#7d819e;}</style>
    <clipPath id="clippath">
      <rect class="cls-14" x="186.443" y="334.907" width="124.975" height="31.854" transform="translate(-180.571 374.91) rotate(-57.851)"></rect>
    </clipPath>
    <clipPath id="clippath-1">
      <path class="cls-14" d="m239.605,283.109h86.228v27.832h-74.417c-2.764,0-4.578,2.891-3.374,5.379l29.211,60.421-25.06,12.128-34.357-71.052c-7.765-16.058,3.934-34.708,21.77-34.708Z"></path>
    </clipPath>
  </defs>
  <g id="Expense_Management">
    <g class="cls-8">
      <circle class="cls-17" cx="173.355" cy="173.355" r="173.355"></circle>
    </g>
    <path class="cls-10" d="m193.368,71.088h0c-5.194-2.501-7.377-8.74-4.876-13.934-2.501,5.194-8.74,7.377-13.934,4.876h0c5.194,2.501,7.377,8.74,4.876,13.934,2.501-5.194,8.74-7.377,13.934-4.876Z"></path>
    <path class="cls-10" d="m224.046,123.479h0c4.543-3.549,11.103-2.743,14.652,1.801-3.549-4.543-2.743-11.104,1.801-14.652h0c-4.543,3.549-11.103,2.743-14.652-1.8,3.549,4.543,2.743,11.103-1.801,14.652Z"></path>
    <path class="cls-10" d="m220.706,92.051h0c-1.402-5.592,1.995-11.262,7.587-12.664-5.592,1.402-11.262-1.995-12.664-7.587h0c1.402,5.592-1.995,11.262-7.587,12.664,5.592-1.402,11.262,1.995,12.664,7.587Z"></path>
    <rect class="cls-7" x="37.068" y="104.38" width="156.749" height="107.051" rx="9.095" ry="9.095"></rect>
    <path class="cls-9" d="m184.722,211.931H46.163c-5.291,0-9.595-4.304-9.595-9.595v-88.861c0-5.291,4.304-9.595,9.595-9.595h138.559c5.291,0,9.595,4.304,9.595,9.595v88.861c0,5.291-4.304,9.595-9.595,9.595ZM46.163,104.881c-4.739,0-8.595,3.855-8.595,8.595v88.861c0,4.739,3.855,8.595,8.595,8.595h138.559c4.739,0,8.595-3.856,8.595-8.595v-88.861c0-4.739-3.855-8.595-8.595-8.595H46.163Z"></path>
    <rect class="cls-12" x="39.649" y="104.38" width="156.749" height="107.051" rx="9.095" ry="9.095"></rect>
    <path class="cls-9" d="m187.303,211.931H48.744c-5.291,0-9.595-4.304-9.595-9.595v-88.861c0-5.291,4.304-9.595,9.595-9.595h138.559c5.291,0,9.595,4.304,9.595,9.595v88.861c0,5.291-4.304,9.595-9.595,9.595ZM48.744,104.881c-4.739,0-8.595,3.855-8.595,8.595v88.861c0,4.739,3.856,8.595,8.595,8.595h138.559c4.739,0,8.595-3.856,8.595-8.595v-88.861c0-4.739-3.855-8.595-8.595-8.595H48.744Z"></path>
    <rect class="cls-18" x="44.085" y="108.521" width="147.877" height="92.265" rx="5.788" ry="5.788"></rect>
    <path class="cls-9" d="m186.174,201.285H49.872c-3.467,0-6.288-2.821-6.288-6.288v-80.689c0-3.467,2.821-6.288,6.288-6.288h136.302c3.467,0,6.288,2.821,6.288,6.288v80.689c0,3.467-2.821,6.288-6.288,6.288ZM49.872,109.02c-2.916,0-5.288,2.372-5.288,5.288v80.689c0,2.916,2.372,5.288,5.288,5.288h136.302c2.916,0,5.288-2.372,5.288-5.288v-80.689c0-2.916-2.372-5.288-5.288-5.288H49.872Z"></path>
    <rect class="cls-18" x="60.131" y="122.857" width="115.785" height="10.945"></rect>
    <path class="cls-9" d="m175.916,134.302H60.131c-.276,0-.5-.224-.5-.5v-10.945c0-.276.224-.5.5-.5h115.785c.276,0,.5.224.5.5v10.945c0,.276-.224.5-.5.5Zm-115.285-1h114.785v-9.945H60.631v9.945Z"></path>
    <path class="cls-5" d="m175.916,119.359v3.498H60.131v-3.498c0-1.065.865-1.936,1.936-1.936h111.913c1.071,0,1.936.871,1.936,1.936Z"></path>
    <path class="cls-9" d="m175.916,123.357H60.131c-.276,0-.5-.224-.5-.5v-3.498c0-1.343,1.093-2.436,2.436-2.436h111.913c1.343,0,2.436,1.093,2.436,2.436v3.498c0,.276-.224.5-.5.5Zm-115.285-1h114.785v-2.998c0-.792-.644-1.436-1.436-1.436H62.067c-.792,0-1.436.644-1.436,1.436v2.998Z"></path>
    <path class="cls-7" d="m60.131,133.802h115.785v56.145c0,1.071-.865,1.936-1.936,1.936H62.067c-1.071,0-1.936-.865-1.936-1.936v-56.145Z"></path>
    <path class="cls-9" d="m173.98,192.383H62.067c-1.343,0-2.436-1.093-2.436-2.436v-56.145c0-.276.224-.5.5-.5h115.785c.276,0,.5.224.5.5v56.145c0,1.343-1.093,2.436-2.436,2.436Zm-113.349-58.081v55.645c0,.792.644,1.436,1.436,1.436h111.913c.792,0,1.436-.644,1.436-1.436v-55.645H60.631Z"></path>
    <path class="cls-9" d="m162.215,141.626h-62.085c-.276,0-.5-.224-.5-.5s.224-.5.5-.5h62.085c.276,0,.5.224.5.5s-.224.5-.5.5Z"></path>
    <path class="cls-9" d="m162.215,144.589h-54.043c-.276,0-.5-.224-.5-.5s.224-.5.5-.5h54.043c.276,0,.5.224.5.5s-.224.5-.5.5Z"></path>
    <path class="cls-9" d="m162.215,147.551h-54.043c-.276,0-.5-.224-.5-.5s.224-.5.5-.5h54.043c.276,0,.5.224.5.5s-.224.5-.5.5Z"></path>
    <path class="cls-9" d="m162.215,150.514h-54.043c-.276,0-.5-.224-.5-.5s.224-.5.5-.5h54.043c.276,0,.5.224.5.5s-.224.5-.5.5Z"></path>
    <path class="cls-9" d="m162.215,153.476h-54.043c-.276,0-.5-.224-.5-.5s.224-.5.5-.5h54.043c.276,0,.5.224.5.5s-.224.5-.5.5Z"></path>
    <path class="cls-9" d="m162.215,156.439h-54.043c-.276,0-.5-.224-.5-.5s.224-.5.5-.5h54.043c.276,0,.5.224.5.5s-.224.5-.5.5Z"></path>
    <path class="cls-9" d="m162.215,168.755h-62.085c-.276,0-.5-.224-.5-.5s.224-.5.5-.5h62.085c.276,0,.5.224.5.5s-.224.5-.5.5Z"></path>
    <path class="cls-9" d="m162.215,171.717h-54.043c-.276,0-.5-.224-.5-.5s.224-.5.5-.5h54.043c.276,0,.5.224.5.5s-.224.5-.5.5Z"></path>
    <path class="cls-9" d="m162.215,174.679h-54.043c-.276,0-.5-.224-.5-.5s.224-.5.5-.5h54.043c.276,0,.5.224.5.5s-.224.5-.5.5Z"></path>
    <path class="cls-9" d="m162.215,177.642h-54.043c-.276,0-.5-.224-.5-.5s.224-.5.5-.5h54.043c.276,0,.5.224.5.5s-.224.5-.5.5Z"></path>
    <path class="cls-9" d="m162.215,180.604h-54.043c-.276,0-.5-.224-.5-.5s.224-.5.5-.5h54.043c.276,0,.5.224.5.5s-.224.5-.5.5Z"></path>
    <rect class="cls-11" x="67.501" y="126.298" width="70.272" height="4.188" rx="2.094" ry="2.094"></rect>
    <path class="cls-9" d="m135.679,130.986h-66.084c-1.431,0-2.594-1.164-2.594-2.594s1.164-2.594,2.594-2.594h66.084c1.43,0,2.594,1.164,2.594,2.594s-1.164,2.594-2.594,2.594Zm-66.084-4.188c-.879,0-1.594.715-1.594,1.594s.715,1.594,1.594,1.594h66.084c.879,0,1.594-.715,1.594-1.594s-.715-1.594-1.594-1.594h-66.084Z"></path>
    <rect class="cls-5" x="143.208" y="126.298" width="25.047" height="4.188" rx="2.094" ry="2.094"></rect>
    <path class="cls-9" d="m166.161,130.986h-20.859c-1.43,0-2.594-1.164-2.594-2.594s1.164-2.594,2.594-2.594h20.859c1.431,0,2.594,1.164,2.594,2.594s-1.164,2.594-2.594,2.594Zm-20.859-4.188c-.879,0-1.594.715-1.594,1.594s.715,1.594,1.594,1.594h20.859c.879,0,1.594-.715,1.594-1.594s-.715-1.594-1.594-1.594h-20.859Z"></path>
    <circle class="cls-9" cx="63.71" cy="120.14" r="1.136"></circle>
    <circle class="cls-9" cx="68.055" cy="120.14" r="1.136"></circle>
    <path class="cls-9" d="m81.443,156.847c-4.472,0-8.111-3.638-8.111-8.11s3.639-8.111,8.111-8.111,8.11,3.638,8.11,8.111-3.638,8.11-8.11,8.11Zm0-15.221c-3.921,0-7.111,3.19-7.111,7.111s3.19,7.11,7.111,7.11,7.11-3.19,7.11-7.11-3.189-7.111-7.11-7.111Z"></path>
    <path class="cls-9" d="m81.443,182.29c-4.472,0-8.111-3.638-8.111-8.111s3.639-8.11,8.111-8.11,8.11,3.638,8.11,8.11-3.638,8.111-8.11,8.111Zm0-15.221c-3.921,0-7.111,3.19-7.111,7.11s3.19,7.111,7.111,7.111,7.11-3.19,7.11-7.111-3.189-7.11-7.11-7.11Z"></path>
    <rect class="cls-12" x="108.569" y="211.431" width="16.328" height="23.979"></rect>
    <path class="cls-9" d="m124.897,235.91h-16.328c-.276,0-.5-.224-.5-.5v-23.979c0-.276.224-.5.5-.5h16.328c.276,0,.5.224.5.5v23.979c0,.276-.224.5-.5.5Zm-15.828-1h15.328v-22.979h-15.328v22.979Z"></path>
    <rect class="cls-12" x="96.502" y="235.41" width="40.461" height="9.646"></rect>
    <path class="cls-9" d="m136.963,245.556h-40.461c-.276,0-.5-.224-.5-.5v-9.646c0-.276.224-.5.5-.5h40.461c.276,0,.5.224.5.5v9.646c0,.276-.224.5-.5.5Zm-39.961-1h39.461v-8.646h-39.461v8.646Z"></path>
    <rect class="cls-1" x="63.548" y="242.61" width="67.191" height="2.125"></rect>
    <path class="cls-9" d="m130.739,244.985H63.548c-.138,0-.25-.112-.25-.25v-2.125c0-.138.112-.25.25-.25h67.191c.138,0,.25.112.25.25v2.125c0,.138-.112.25-.25.25Zm-66.941-.5h66.691v-1.625H63.798v1.625Z"></path>
    <rect class="cls-1" x="63.548" y="240.485" width="67.191" height="2.125"></rect>
    <path class="cls-9" d="m130.739,242.86H63.548c-.138,0-.25-.112-.25-.25v-2.125c0-.138.112-.25.25-.25h67.191c.138,0,.25.112.25.25v2.125c0,.138-.112.25-.25.25Zm-66.941-.5h66.691v-1.625H63.798v1.625Z"></path>
    <rect class="cls-1" x="63.548" y="238.36" width="67.191" height="2.125"></rect>
    <path class="cls-9" d="m130.739,240.735H63.548c-.138,0-.25-.112-.25-.25v-2.125c0-.138.112-.25.25-.25h67.191c.138,0,.25.112.25.25v2.125c0,.138-.112.25-.25.25Zm-66.941-.5h66.691v-1.625H63.798v1.625Z"></path>
    <rect class="cls-1" x="63.548" y="236.234" width="67.191" height="2.125"></rect>
    <path class="cls-9" d="m130.739,238.61H63.548c-.138,0-.25-.112-.25-.25v-2.125c0-.138.112-.25.25-.25h67.191c.138,0,.25.112.25.25v2.125c0,.138-.112.25-.25.25Zm-66.941-.5h66.691v-1.625H63.798v1.625Z"></path>
    <rect class="cls-1" x="63.548" y="234.109" width="67.191" height="2.125"></rect>
    <path class="cls-9" d="m130.739,236.485H63.548c-.138,0-.25-.112-.25-.25v-2.125c0-.138.112-.25.25-.25h67.191c.138,0,.25.112.25.25v2.125c0,.138-.112.25-.25.25Zm-66.941-.5h66.691v-1.625H63.798v1.625Z"></path>
    <rect class="cls-1" x="63.548" y="231.984" width="67.191" height="2.125"></rect>
    <path class="cls-9" d="m130.739,234.359H63.548c-.138,0-.25-.112-.25-.25v-2.125c0-.138.112-.25.25-.25h67.191c.138,0,.25.112.25.25v2.125c0,.138-.112.25-.25.25Zm-66.941-.5h66.691v-1.625H63.798v1.625Z"></path>
    <rect class="cls-1" x="63.548" y="229.859" width="67.191" height="2.125"></rect>
    <path class="cls-9" d="m130.739,232.234H63.548c-.138,0-.25-.112-.25-.25v-2.125c0-.138.112-.25.25-.25h67.191c.138,0,.25.112.25.25v2.125c0,.138-.112.25-.25.25Zm-66.941-.5h66.691v-1.625H63.798v1.625Z"></path>
    <rect class="cls-1" x="158.936" y="242.874" width="58.169" height="1.889"></rect>
    <path class="cls-9" d="m217.105,245.013h-58.168c-.138,0-.25-.112-.25-.25v-1.889c0-.138.112-.25.25-.25h58.168c.138,0,.25.112.25.25v1.889c0,.138-.112.25-.25.25Zm-57.918-.5h57.668v-1.389h-57.668v1.389Z"></path>
    <rect class="cls-2" x="233.729" y="257.019" width="7.866" height="28.457"></rect>
    <path class="cls-9" d="m241.595,286.047h-7.866c-.315,0-.571-.256-.571-.571v-28.457c0-.315.256-.571.571-.571h7.866c.315,0,.571.256.571.571v28.457c0,.315-.256.571-.571.571Zm-7.295-1.142h6.724v-27.315h-6.724v27.315Z"></path>
    <rect class="cls-2" x="37.068" y="245.056" width="229.913" height="11.963"></rect>
    <path class="cls-9" d="m266.98,257.519H37.068c-.276,0-.5-.224-.5-.5v-11.963c0-.276.224-.5.5-.5h229.913c.276,0,.5.224.5.5v11.963c0,.276-.224.5-.5.5Zm-229.413-1h228.913v-10.963H37.568v10.963Z"></path>
    <rect class="cls-2" x="64.122" y="257.019" width="7.866" height="193.324"></rect>
    <path class="cls-9" d="m71.989,450.841h-7.866c-.275,0-.498-.223-.498-.498v-193.324c0-.275.223-.498.498-.498h7.866c.275,0,.498.223.498.498v193.324c0,.275-.223.498-.498.498Zm-7.368-.996h6.87v-192.328h-6.87v192.328Z"></path>
    <path class="cls-18" d="m143.13,241.651c.622-.435,2.047.337,3.181,1.725.405.496.713,1.002.919,1.468l3.085.04c-.874-1.249-1.147-2.476-.58-2.867.634-.438,2.073.34,3.209,1.736.321.394.575.793.772,1.175l2.754.036c-.736-1.165-.934-2.264-.395-2.631.647-.44,2.097.343,3.236,1.748.251.309.459.622.634.928l3.62.047-32.838-41.368-2.53-.035c.615,1.105.764,2.111.292,2.489-.622.498-2.086-.283-3.273-1.747-.213-.262-.393-.528-.558-.792l-2.788-.038c.625,1.104.785,2.112.32,2.49-.609.495-2.061-.282-3.245-1.735-.217-.266-.4-.535-.567-.803l-3.074-.042c.617,1.089.778,2.08.326,2.452-.596.492-2.035-.279-3.217-1.723-.211-.257-.39-.518-.554-.777l-3.74-.052,32.322,41.379,3.515.046c-1.047-1.339-1.424-2.729-.824-3.15Z"></path>
    <path class="cls-9" d="m163.564,245.556h-.006l-3.621-.047c-.177-.002-.34-.098-.428-.252-.175-.306-.373-.596-.588-.862-1.099-1.357-2.282-1.84-2.566-1.649-.174.119-.145.872.537,1.95.098.155.103.351.014.511-.09.16-.231.252-.443.256l-2.754-.036c-.185-.002-.354-.107-.438-.271-.194-.377-.435-.744-.715-1.088-1.097-1.348-2.263-1.828-2.537-1.641-.033.023-.056.072-.07.147-.065.362.149,1.128.775,2.021.107.154.12.355.032.521-.087.166-.274.272-.448.266l-3.085-.04c-.196-.003-.372-.119-.451-.298-.197-.447-.49-.915-.849-1.353-1.161-1.422-2.283-1.787-2.507-1.632h0c-.041.029-.059.108-.065.152-.061.407.225,1.294.996,2.28.118.152.139.358.054.53s-.261.278-.455.278l-3.515-.046c-.152-.002-.294-.073-.388-.192l-32.322-41.379c-.119-.152-.139-.358-.054-.53.086-.172.255-.287.455-.278l3.74.052c.169.002.325.09.416.232.154.243.322.487.519.728.891,1.09,1.819,1.637,2.303,1.685.097.01.173-.002.208-.031.135-.112.146-.78-.443-1.82-.088-.156-.086-.347.005-.501.091-.154.254-.253.437-.245l3.074.042c.17.002.327.091.417.235.156.25.328.502.531.751,1.205,1.48,2.328,1.838,2.542,1.663.146-.118.167-.784-.439-1.855-.088-.156-.086-.347.005-.501s.264-.254.437-.245l2.788.039c.17.002.328.091.417.235.154.247.322.495.522.741,1.138,1.404,2.312,1.88,2.572,1.672.149-.119.18-.786-.416-1.856-.086-.156-.084-.346.008-.5.092-.154.27-.242.436-.244l2.53.035c.15.002.292.072.385.189l32.838,41.368c.12.151.142.358.057.531-.084.171-.258.28-.449.28Zm-3.334-1.044l2.288.03-32.036-40.358-1.488-.021c.422,1.067.361,1.925-.194,2.369-.994.795-2.75-.315-3.973-1.822-.165-.202-.311-.406-.446-.61l-1.708-.024c.431,1.065.378,1.922-.169,2.367-.977.792-2.727-.308-3.948-1.808-.168-.206-.318-.414-.455-.622l-1.995-.028c.421,1.045.372,1.888-.161,2.327-.172.142-.479.299-.942.255-.875-.086-2.017-.87-2.98-2.047-.162-.198-.307-.398-.44-.597l-2.43-.034,31.533,40.368,2.311.03c-.491-.83-.724-1.624-.634-2.223.053-.356.219-.641.48-.824h0c.989-.693,2.689.389,3.855,1.818.338.414.627.854.849,1.288l1.871.024c-.387-.745-.55-1.438-.454-1.974.062-.342.229-.616.486-.793,1.006-.694,2.713.396,3.88,1.833.258.317.487.65.684.995l1.608.021c-.519-1.145-.471-2.097.17-2.533,1.017-.693,2.736.403,3.906,1.847.19.235.368.485.531.746Z"></path>
    <path class="cls-9" d="m132.433,211.557h-.011l-13.739-.294c-.276-.006-.495-.235-.489-.511.006-.276.201-.492.511-.489l13.739.294c.276.006.495.235.489.511-.006.272-.229.489-.5.489Z"></path>
    <path class="cls-9" d="m136.291,216.864s-.009,0-.014,0l-13.748-.368c-.276-.007-.494-.237-.487-.513.007-.276.272-.495.513-.486l13.748.368c.276.007.494.237.487.513-.007.271-.23.487-.5.487Z"></path>
    <path class="cls-9" d="m139.946,221.885c-.005,0-.011,0-.017,0l-13.756-.437c-.276-.009-.492-.24-.483-.516.008-.276.206-.503.516-.484l13.756.437c.276.009.492.24.483.516-.008.271-.23.484-.499.484Z"></path>
    <path class="cls-9" d="m143.829,226.688c-.006,0-.013,0-.019,0l-13.774-.504c-.276-.01-.492-.242-.481-.518.01-.276.274-.494.518-.481l13.774.504c.276.01.492.242.481.518-.01.27-.231.482-.499.482Z"></path>
    <path class="cls-9" d="m147.955,232.065c-.007,0-.014,0-.021,0l-13.789-.577c-.276-.011-.49-.245-.479-.521.012-.276.255-.49.521-.479l13.789.577c.276.011.49.245.479.521-.011.269-.232.479-.499.479Z"></path>
    <path class="cls-9" d="m152.085,237.446c-.008,0-.016,0-.024,0l-13.802-.65c-.276-.013-.489-.247-.476-.523.013-.276.246-.482.523-.476l13.802.65c.276.013.489.247.476.523-.013.268-.234.477-.499.477Z"></path>
    <rect id="Haare_hinten" class="cls-19" x="323.432" y="119.904" width="25.583" height="94.64"></rect>
    <path class="cls-9" d="m349.016,215.043h-25.583c-.276,0-.5-.224-.5-.5v-94.639c0-.276.224-.5.5-.5h25.583c.276,0,.5.224.5.5v94.639c0,.276-.224.5-.5.5Zm-25.083-1h24.583v-93.639h-24.583v93.639Z"></path>
    <rect class="cls-4" x="200.745" y="401.196" width="19.865" height="18.269" transform="translate(-250.306 394.512) rotate(-60.857)"></rect>
    <path class="cls-9" d="m213.819,423.954c-.084,0-.168-.021-.244-.063l-15.956-8.897c-.116-.065-.201-.173-.237-.3-.036-.128-.021-.264.044-.38l9.674-17.35c.134-.241.438-.328.68-.193l15.956,8.896c.241.135.328.439.193.68l-9.674,17.35c-.064.116-.172.201-.3.238-.045.013-.091.019-.137.019Zm-15.276-9.59l15.083,8.41,9.187-16.477-15.082-8.409-9.188,16.477Z"></path>
    <rect class="cls-7" x="186.443" y="334.907" width="124.975" height="31.854" transform="translate(-180.571 374.91) rotate(-57.851)"></rect>
    <g class="cls-13">
      <rect class="cls-9" x="238.917" y="369.666" width="2.655" height="13.247" transform="translate(-154.065 166.931) rotate(-29.477)"></rect>
      <path class="cls-9" d="m242.259,383.031l-6.751-11.944,2.723-1.539,6.751,11.944-2.723,1.539Zm-6.107-11.765l6.286,11.12,1.899-1.073-6.286-11.12-1.899,1.073Z"></path>
      <rect class="cls-9" x="221.952" y="383.317" width="13.247" height="2.655" transform="translate(-196.06 525.652) rotate(-77.649)"></rect>
      <path class="cls-9" d="m228.636,391.68l-3.055-.669,2.935-13.402,3.056.669-2.935,13.402Zm-2.492-1.03l2.13.467,2.733-12.478-2.131-.467-2.732,12.478Z"></path>
      <rect class="cls-9" x="236.869" y="397.968" width="2.655" height="13.247" transform="translate(-221.773 498.718) rotate(-71.078)"></rect>
      <path class="cls-9" d="m244.178,408.295l-12.979-4.449,1.015-2.959,12.979,4.449-1.015,2.959Zm-12.377-4.743l12.083,4.142.707-2.063-12.083-4.142-.707,2.063Z"></path>
      <rect class="cls-9" x="212.563" y="409.799" width="13.247" height="2.655" transform="translate(-220.482 256.985) rotate(-42.616)"></rect>
      <path class="cls-9" d="m215.197,416.922l-2.118-2.302,10.097-9.29,2.118,2.302-10.097,9.29Zm-1.449-2.274l1.477,1.605,9.4-8.649-1.477-1.605-9.4,8.649Z"></path>
      <rect class="cls-9" x="207.932" y="383.819" width="2.655" height="13.247" transform="translate(-233.406 407.231) rotate(-63.983)"></rect>
      <path class="cls-9" d="m214.738,394.857l-12.33-6.018,1.372-2.811,12.33,6.018-1.372,2.811Zm-11.697-6.236l11.479,5.603.957-1.96-11.479-5.603-.957,1.96Z"></path>
      <rect class="cls-9" x="209.385" y="377.381" width="13.247" height="2.655" transform="translate(-166.405 588.086) rotate(-89.002)"></rect>
      <path class="cls-9" d="m217.452,385.594l-3.127-.054.239-13.718,3.127.055-.239,13.718Zm-2.646-.519l2.181.038.223-12.771-2.181-.038-.222,12.772Z"></path>
      <rect class="cls-9" x="255.159" y="325.203" width="13.247" height="2.655" transform="translate(-113.186 512.407) rotate(-77.649)"></rect>
      <path class="cls-9" d="m261.843,333.566l-3.056-.669,2.935-13.403,3.056.669-2.935,13.402Zm-2.492-1.03l2.131.467,2.732-12.478-2.131-.467-2.732,12.478Z"></path>
      <rect class="cls-9" x="270.076" y="339.854" width="2.655" height="13.247" transform="translate(-144.36 490.862) rotate(-71.078)"></rect>
      <path class="cls-9" d="m277.386,350.181l-12.979-4.449,1.015-2.959,12.979,4.449-1.015,2.959Zm-12.377-4.743l12.083,4.142.707-2.063-12.083-4.142-.707,2.063Z"></path>
      <rect class="cls-9" x="242.592" y="319.266" width="13.247" height="2.655" transform="translate(-75.671 564.186) rotate(-89.002)"></rect>
      <path class="cls-9" d="m250.66,327.48l-3.127-.054.239-13.718,3.127.054-.239,13.718Zm-2.646-.519l2.181.038.222-12.772-2.181-.038-.223,12.772Z"></path>
      <rect class="cls-9" x="230.763" y="345.796" width="13.247" height="2.655" transform="translate(-61.35 51.145) rotate(-10.899)"></rect>
      <path class="cls-9" d="m230.946,349.956l-.592-3.072,13.473-2.594.592,3.072-13.473,2.594Zm-.037-2.696l.412,2.142,12.543-2.415-.412-2.142-12.543,2.415Z"></path>
      <rect class="cls-9" x="224.416" y="352.307" width="2.655" height="13.247" transform="translate(-186.995 456.084) rotate(-71.078)"></rect>
      <path class="cls-9" d="m231.725,362.634l-12.979-4.449,1.015-2.959,12.979,4.449-1.015,2.959Zm-12.377-4.743l12.083,4.142.707-2.063-12.083-4.142-.707,2.063Z"></path>
    </g>
    <path class="cls-9" d="m229.164,412.715c-.091,0-.183-.025-.266-.077l-26.97-16.95c-.112-.071-.192-.183-.221-.312-.03-.129-.007-.265.064-.377l66.501-105.812c.148-.234.457-.304.689-.157l26.97,16.95c.112.071.192.183.221.312.03.129.007.265-.064.377l-66.501,105.812c-.095.151-.258.234-.424.234Zm-26.28-17.607l26.123,16.418,65.969-104.965-26.123-16.418-65.969,104.965Z"></path>
    <path class="cls-2" d="m147.155,408.775l38.07,20.946,5.488.675,18.807,10.348,1.048-1.905.003.002.583-1.059-.003-.002,8.552-15.542,4.994-9.076-6.711-3.693-2.051,3.728c-1.473,2.678-4.747,3.992-7.552,2.78-3.218-1.391-4.473-5.203-2.823-8.201l2.173-3.949-6.711-3.693-1.975,3.589-29.884-5.033c-8.756-1.851-17.691,2.244-22.005,10.085h0"></path>
    <path class="cls-9" d="m209.519,441.243c-.082,0-.164-.02-.241-.062l-18.722-10.301-5.393-.663c-.063-.008-.124-.028-.18-.058l-38.07-20.946c-.242-.133-.33-.437-.197-.679,4.452-8.091,13.512-12.242,22.547-10.333l29.514,4.97,1.804-3.278c.133-.242.437-.331.679-.197l6.711,3.693c.242.133.33.437.197.679l-2.172,3.948c-.725,1.319-.861,2.892-.374,4.316.495,1.444,1.545,2.575,2.957,3.185,2.496,1.079,5.532-.047,6.916-2.562l2.052-3.728c.133-.242.437-.331.679-.197l6.711,3.693c.242.133.33.437.197.679l-13.518,24.569c-.007.017-.015.034-.024.051l-.583,1.059c-.009.017-.02.034-.031.049l-1.021,1.854c-.091.166-.262.259-.438.259Zm-24.138-12.007l5.393.663c.063.008.124.028.18.058l18.368,10.106.808-1.467c.009-.017.02-.034.031-.049l.527-.958c.007-.017.015-.034.024-.051l13.304-24.18-5.835-3.21-1.811,3.29c-1.629,2.961-5.227,4.277-8.188,2.998-1.674-.723-2.919-2.065-3.506-3.779-.579-1.69-.417-3.557.443-5.122l1.931-3.51-5.834-3.21-1.734,3.15c-.103.186-.311.288-.521.252l-29.885-5.032c-8.456-1.787-16.919,1.982-21.238,9.397l37.542,20.656Z"></path>
    <polygon class="cls-7" points="147.155 408.775 142.864 416.572 171.442 432.296 172.941 429.571 181.664 434.37 180.165 437.095 204.242 450.343 210.571 438.84 196.088 431.057 185.225 429.721 147.155 408.775"></polygon>
    <path class="cls-9" d="m204.242,450.843c-.083,0-.167-.021-.241-.062l-24.078-13.248c-.116-.064-.202-.171-.239-.299-.037-.127-.022-.264.042-.38l1.258-2.287-7.846-4.317-1.259,2.287c-.064.116-.171.202-.299.239-.127.036-.264.021-.38-.042l-28.577-15.724c-.242-.133-.33-.437-.197-.679l4.29-7.798c.064-.116.171-.202.299-.239.126-.037.264-.022.38.042l37.985,20.9,10.768,1.324c.062.008.121.027.176.056l14.483,7.783c.117.063.205.171.243.299.038.128.023.266-.042.383l-6.329,11.503c-.064.116-.171.202-.299.239-.045.013-.092.02-.139.02Zm-23.398-13.945l23.201,12.765,5.845-10.623-13.956-7.5-10.771-1.324c-.063-.008-.124-.028-.18-.058l-37.631-20.705-3.808,6.921,27.701,15.241,1.259-2.287c.064-.116.171-.202.299-.239.126-.037.263-.022.38.042l8.723,4.8c.116.064.202.171.239.299.037.127.022.264-.042.38l-1.258,2.287Z"></path>
    <path class="cls-9" d="m192.05,415.306c-.029,0-.059-.002-.089-.008-.271-.049-.452-.309-.403-.581l2.145-11.9c.049-.272.306-.454.581-.404.271.049.452.309.403.581l-2.145,11.9c-.043.242-.254.411-.492.411Z"></path>
    <path class="cls-9" d="m186.083,413.838c-.028,0-.057-.002-.086-.007-.272-.048-.454-.306-.407-.579l1.997-11.462c.048-.272.303-.453.579-.407.272.048.454.306.407.579l-1.997,11.462c-.042.243-.253.414-.492.414Z"></path>
    <path class="cls-9" d="m180.262,412.856c-.028,0-.057-.002-.085-.007-.272-.047-.455-.305-.408-.578l1.874-10.878c.047-.272.308-.456.578-.408.272.047.455.305.408.578l-1.874,10.878c-.042.243-.253.415-.492.415Z"></path>
    <rect class="cls-4" x="261.348" y="376.827" width="17.385" height="24.083" transform="translate(-142.428 156.467) rotate(-25.824)"></rect>
    <path class="cls-9" d="m267.462,403.994c-.055,0-.111-.009-.164-.028-.125-.043-.228-.135-.286-.254l-10.491-21.678c-.12-.249-.016-.548.232-.668l15.649-7.573c.25-.121.548-.016.668.232l10.491,21.678c.058.119.065.257.022.382s-.135.228-.254.286l-15.649,7.573c-.068.033-.143.05-.218.05Zm-9.823-21.946l10.055,20.778,14.749-7.137-10.056-20.778-14.749,7.137Z"></path>
    <path class="cls-2" d="m230.872,443.358l40.83-18.818,3.934-4.154,20.17-9.296-.942-2.043h.003s-.523-1.137-.523-1.137h-.003s-7.683-16.668-7.683-16.668l-4.486-9.734-7.198,3.317,1.843,3.999c1.324,2.872.406,6.404-2.327,7.994-3.135,1.824-7.08.526-8.562-2.689l-1.952-4.235-7.198,3.317,1.774,3.849-22.553,21.784c-6.921,6.151-9.003,16.105-5.128,24.514h0"></path>
    <path class="cls-9" d="m230.872,443.858c-.059,0-.117-.01-.173-.031-.124-.046-.225-.139-.281-.26-3.996-8.67-1.886-18.756,5.25-25.097l22.283-21.523-1.625-3.527c-.056-.12-.061-.258-.015-.382s.14-.226.26-.281l7.198-3.317c.121-.055.258-.061.383-.015.124.046.225.139.281.26l1.952,4.235c.654,1.418,1.883,2.501,3.373,2.972,1.512.477,3.103.298,4.483-.506,2.438-1.418,3.371-4.648,2.125-7.353l-1.843-3.999c-.116-.251-.006-.548.245-.663l7.197-3.317c.121-.055.258-.061.382-.015.125.046.226.139.281.26l12.144,26.347c.011.017.02.035.029.054l.523,1.136c.009.019.016.037.022.057l.917,1.988c.056.12.061.258.015.382s-.14.226-.26.281l-20.083,9.256-3.868,4.084c-.043.046-.096.084-.153.11l-40.83,18.818c-.066.031-.138.046-.209.046Zm26.57-50.402l1.564,3.395c.089.193.046.421-.107.569l-22.553,21.783c-6.694,5.95-8.755,15.327-5.225,23.489l40.283-18.566,3.868-4.084c.043-.046.096-.084.153-.11l19.716-9.087-.732-1.589c-.009-.019-.016-.038-.022-.057l-.473-1.025c-.011-.017-.02-.035-.029-.054l-11.959-25.948-6.289,2.899,1.633,3.544c1.46,3.168.349,6.961-2.53,8.636-1.627.947-3.505,1.158-5.287.595-1.758-.555-3.209-1.834-3.98-3.507l-1.742-3.781-6.29,2.899Z"></path>
    <polygon class="cls-7" points="230.872 443.358 234.726 451.721 265.375 437.595 264.028 434.672 273.383 430.361 274.731 433.283 300.553 421.382 294.867 409.045 279.489 416.318 271.702 424.54 230.872 443.358"></polygon>
    <path class="cls-9" d="m234.726,452.221c-.059,0-.117-.01-.173-.031-.124-.046-.225-.139-.281-.26l-3.854-8.363c-.056-.12-.061-.258-.015-.382s.14-.226.26-.281l40.742-18.778,7.721-8.152c.042-.045.093-.082.149-.108l15.378-7.273c.121-.057.259-.063.385-.018.125.046.228.139.283.261l5.686,12.337c.116.251.006.548-.245.663l-25.823,11.902c-.252.116-.548.006-.664-.245l-1.138-2.469-8.447,3.893,1.138,2.469c.056.12.061.258.015.382s-.14.226-.26.281l-30.649,14.126c-.066.031-.138.046-.209.046Zm-3.191-8.618l3.436,7.455,29.741-13.708-1.138-2.469c-.056-.12-.061-.258-.015-.382s.14-.226.26-.281l9.355-4.312c.252-.116.548-.006.664.245l1.138,2.469,24.915-11.483-5.265-11.424-14.837,7.017-7.723,8.154c-.043.046-.096.084-.153.11l-40.375,18.609Z"></path>
    <path class="cls-9" d="m263.48,410.194c-.133,0-.265-.052-.364-.157l-8.588-9.098c-.189-.201-.18-.517.021-.707.201-.19.517-.18.707.02l8.588,9.098c.189.201.18.517-.021.707-.097.091-.22.136-.343.136Z"></path>
    <path class="cls-9" d="m258.591,414.258c-.132,0-.263-.052-.362-.155l-8.313-8.705c-.19-.2-.183-.516.017-.707.199-.191.516-.184.707.016l8.313,8.705c.19.2.183.516-.017.707-.097.093-.221.138-.345.138Z"></path>
    <path class="cls-9" d="m254.197,418.5c-.131,0-.263-.052-.361-.154l-7.903-8.244c-.191-.199-.185-.516.015-.707.2-.191.516-.185.707.015l7.903,8.244c.191.199.185.516-.015.707-.097.093-.222.139-.346.139Z"></path>
    <path class="cls-7" d="m239.605,283.109h86.228v27.832h-74.417c-2.764,0-4.578,2.891-3.374,5.379l29.211,60.421-25.06,12.128-34.357-71.052c-7.765-16.058,3.934-34.708,21.77-34.708Z"></path>
    <g class="cls-6">
      <rect class="cls-9" x="252.763" y="337.354" width="2.655" height="13.247" transform="translate(-72.865 68.328) rotate(-13.414)"></rect>
      <path class="cls-9" d="m254.16,351.013l-3.183-13.346,3.042-.726,3.183,13.346-3.042.726Zm-2.613-12.995l2.963,12.425,2.122-.506-2.963-12.425-2.122.506Z"></path>
      <rect class="cls-9" x="264.915" y="370.967" width="13.247" height="2.655" transform="translate(-137.783 160.652) rotate(-26.553)"></rect>
      <path class="cls-9" d="m266.101,376.76l-1.398-2.798,12.273-6.133,1.398,2.798-12.273,6.133Zm-.763-2.586l.975,1.951,11.426-5.71-.975-1.951-11.426,5.71Z"></path>
      <rect class="cls-9" x="233.941" y="347.45" width="13.247" height="2.655" transform="translate(-180.667 394.393) rotate(-61.585)"></rect>
      <path class="cls-9" d="m238.676,355.555l-2.751-1.489,6.528-12.067,2.751,1.489-6.529,12.067Zm-2.109-1.679l1.918,1.038,6.079-11.235-1.918-1.038-6.078,11.235Z"></path>
      <rect class="cls-9" x="257.42" y="355.86" width="2.655" height="13.247" transform="translate(-125.557 587.548) rotate(-84.835)"></rect>
      <path class="cls-9" d="m265.438,364.658l-13.665-1.235.282-3.115,13.664,1.235-.281,3.115Zm-13.151-1.664l12.722,1.15.196-2.172-12.722-1.15-.197,2.172Z"></path>
      <rect class="cls-9" x="242.963" y="363.984" width="2.655" height="13.247" transform="translate(-199.416 358.261) rotate(-55.015)"></rect>
      <path class="cls-9" d="m249.014,375.822l-11.241-7.867,1.793-2.563,11.241,7.867-1.793,2.562Zm-10.582-7.983l10.465,7.324,1.25-1.787-10.465-7.324-1.25,1.787Z"></path>
      <rect class="cls-9" x="223.507" y="338.268" width="13.247" height="2.655" transform="translate(-162.04 459.959) rotate(-72.938)"></rect>
      <path class="cls-9" d="m229.613,346.612l-2.99-.918,4.026-13.116,2.99.918-4.026,13.116Zm-2.399-1.231l2.085.64,3.748-12.211-2.085-.64-3.748,12.211Z"></path>
      <rect class="cls-9" x="300.754" y="290.697" width="2.655" height="13.247" transform="translate(-60.732 78.189) rotate(-13.414)"></rect>
      <path class="cls-9" d="m302.151,304.356l-3.183-13.346,3.042-.726,3.183,13.346-3.042.726Zm-2.613-12.995l2.963,12.425,2.122-.506-2.963-12.425-2.122.506Z"></path>
      <rect class="cls-9" x="281.932" y="300.794" width="13.247" height="2.655" transform="translate(-114.477 412.147) rotate(-61.585)"></rect>
      <path class="cls-9" d="m286.667,308.899l-2.751-1.489,6.528-12.067,2.751,1.489-6.529,12.067Zm-2.109-1.679l1.918,1.038,6.079-11.235-1.918-1.038-6.078,11.235Z"></path>
      <rect class="cls-9" x="253.43" y="290.03" width="2.655" height="13.247" transform="translate(-61.869 67.192) rotate(-13.414)"></rect>
      <path class="cls-9" d="m254.828,303.689l-3.183-13.346,3.042-.726,3.183,13.346-3.042.726Zm-2.613-12.995l2.963,12.425,2.122-.506-2.963-12.425-2.122.506Z"></path>
      <rect class="cls-9" x="234.609" y="300.126" width="13.247" height="2.655" transform="translate(-138.695 370.175) rotate(-61.585)"></rect>
      <path class="cls-9" d="m239.343,308.231l-2.751-1.489,6.528-12.067,2.751,1.489-6.529,12.067Zm-2.109-1.679l1.918,1.038,6.079-11.235-1.918-1.038-6.078,11.235Z"></path>
      <rect class="cls-9" x="267.062" y="295.724" width="2.655" height="13.247" transform="translate(-135.882 298.919) rotate(-47.919)"></rect>
      <path class="cls-9" d="m272.433,308.106l-10.184-9.195,2.097-2.322,10.183,9.195-2.096,2.322Zm-9.515-9.229l9.48,8.561,1.462-1.619-9.48-8.561-1.462,1.619Z"></path>
      <rect class="cls-9" x="271.498" y="291.611" width="13.247" height="2.655" transform="translate(-83.526 472.871) rotate(-72.938)"></rect>
      <path class="cls-9" d="m277.604,299.956l-2.99-.918,4.026-13.116,2.99.918-4.026,13.116Zm-2.398-1.231l2.085.64,3.748-12.211-2.085-.64-3.748,12.211Z"></path>
      <rect class="cls-9" x="243.63" y="316.66" width="2.655" height="13.247" transform="translate(-160.359 338.618) rotate(-55.015)"></rect>
      <path class="cls-9" d="m249.682,328.498l-11.241-7.867,1.794-2.562,11.241,7.867-1.793,2.563Zm-10.582-7.983l10.466,7.324,1.25-1.787-10.465-7.324-1.251,1.787Z"></path>
      <rect class="cls-9" x="218.259" y="322.976" width="13.247" height="2.655" transform="translate(-121.251 134.734) rotate(-26.553)"></rect>
      <path class="cls-9" d="m219.444,328.769l-1.398-2.798,12.273-6.133,1.398,2.798-12.273,6.133Zm-.763-2.586l.975,1.951,11.426-5.71-.975-1.951-11.426,5.71Z"></path>
      <rect class="cls-9" x="219.738" y="295.057" width="2.655" height="13.247" transform="translate(-150.995 263.575) rotate(-47.919)"></rect>
      <path class="cls-9" d="m225.109,307.438l-10.184-9.195,2.097-2.322,10.183,9.195-2.096,2.322Zm-9.515-9.229l9.48,8.561,1.462-1.619-9.48-8.561-1.462,1.619Z"></path>
      <rect class="cls-9" x="224.175" y="290.944" width="13.247" height="2.655" transform="translate(-116.327 427.158) rotate(-72.938)"></rect>
      <path class="cls-9" d="m230.28,299.288l-2.99-.918,4.026-13.116,2.99.918-4.026,13.116Zm-2.398-1.231l2.085.64,3.748-12.211-2.085-.64-3.748,12.211Z"></path>
    </g>
    <path class="cls-9" d="m252.192,389.369c-.056,0-.111-.009-.165-.028-.125-.043-.228-.135-.286-.254l-34.357-71.052c-3.722-7.697-3.231-16.616,1.311-23.859,4.543-7.243,12.359-11.567,20.909-11.567h86.228c.276,0,.5.224.5.5v27.832c0,.276-.224.5-.5.5h-74.417c-1.125,0-2.154.569-2.751,1.522-.598.953-.663,2.127-.173,3.14l29.211,60.421c.12.249.016.547-.232.667l-25.061,12.128c-.068.033-.143.05-.218.05Zm-12.587-105.76c-8.203,0-15.703,4.149-20.062,11.098-4.359,6.949-4.829,15.507-1.258,22.892l34.139,70.602,24.161-11.692-28.994-59.971c-.64-1.325-.556-2.86.226-4.106.782-1.247,2.127-1.991,3.599-1.991h73.917v-26.832h-85.728Z"></path>
    <path class="cls-16" d="m353.028,162.167h0c-11.019,0-20.776,6.403-25.366,15.999l-.011-.008-.194.46c-.257.562-.501,1.132-.722,1.715l-12.993,30.877,4.943,5.205-18.23,85.453h71.695v-120.578c0-10.561-8.561-19.122-19.122-19.122Z"></path>
    <path class="cls-9" d="m372.15,302.368h-71.695c-.151,0-.294-.068-.389-.186-.095-.117-.132-.271-.1-.419l18.175-85.196-4.762-5.014c-.137-.144-.175-.355-.098-.538l12.992-30.877c.219-.577.466-1.156.728-1.729l.188-.446c.019-.044.043-.084.072-.12,4.753-9.831,14.854-16.177,25.766-16.177,10.82,0,19.623,8.803,19.623,19.623v120.578c0,.276-.224.5-.5.5Zm-71.077-1h70.577v-120.078c0-10.269-8.354-18.623-18.623-18.623-10.569,0-20.349,6.168-24.915,15.714-.014.028-.029.054-.047.079l-.148.352c-.259.566-.498,1.125-.715,1.698l-12.872,30.592,4.719,4.968c.113.119.161.287.126.448l-18.101,84.849Z"></path>
    <path class="cls-4" d="m334.469,225.909l-8.448,19.15c-3.046,6.897-9.898,11.087-17.078,11.087-2.084,0-4.201-.351-6.251-1.087l-33.702-13.805c-7.361-2.265-18.912-5.844-21.993-7.033-10.532-4.598-16.489-11.676-18.595-15.9-.272-.544-.555-1.144-.838-1.789-.419-.985-.849-2.061-1.246-3.16-.249-.691-.476-1.382-.691-2.061-.51-1.687-.872-3.284-.94-4.485-.068-.929.045-1.619.396-1.948,1.461-1.359,4.009-2.548,5.64,3.964.136.555.26,1.076.374,1.574.396,1.767.646,3.216.849,4.417.125.713.226,1.325.351,1.869.283,1.37.612,2.231,1.348,2.763.679.498,1.846,1.189,3.001,1.812,1.268.702,2.503,1.348,3.024,1.608l-2.095-3.239-1.699-2.627-1.28-1.97s2.423.17,5.911.634h.023c2.854.374,6.421.94,9.954,1.789,2.423.566,4.836,1.268,6.999,2.118.532.204,1.042.419,1.54.657.521.226,1.019.476,1.495.725.849.464,1.631.963,2.299,1.495,3.216,2.559,8.029,5.017,12.491,7.01l32.751,10.657c1.348.487,2.876-.159,3.454-1.472l9.071-20.566"></path>
    <path class="cls-9" d="m308.943,256.646c-2.197,0-4.357-.376-6.42-1.117l-33.723-13.813c-12.482-3.838-19.687-6.142-21.983-7.029-10.207-4.456-16.537-11.48-18.862-16.143-.275-.55-.562-1.158-.849-1.812-.47-1.107-.893-2.178-1.258-3.191-.252-.697-.48-1.394-.697-2.08-.574-1.899-.897-3.447-.962-4.607-.084-1.146.097-1.914.554-2.341,1.106-1.03,2.173-1.401,3.17-1.106,1.428.423,2.506,2.161,3.295,5.313.137.561.262,1.084.376,1.585.41,1.828.667,3.34.855,4.444l.047.272c.102.588.191,1.104.298,1.568.29,1.405.602,2.072,1.153,2.47.609.447,1.709,1.111,2.945,1.777.465.258.921.505,1.336.727l-4.042-6.243c-.103-.159-.107-.363-.011-.526.096-.163.276-.254.466-.245.024.002,2.479.176,5.942.637,3.699.481,7.066,1.087,10.028,1.799,2.651.619,5.028,1.339,7.064,2.138.568.218,1.084.438,1.573.671.516.224,1.025.479,1.512.733.926.506,1.723,1.025,2.378,1.547,2.686,2.137,6.852,4.474,12.384,6.945l32.702,10.638c1.127.406,2.368-.122,2.842-1.198l9.071-20.566c.112-.252.407-.366.659-.256.253.112.367.407.256.659l-9.071,20.566c-.684,1.556-2.477,2.32-4.082,1.741l-32.736-10.651c-5.657-2.524-9.896-4.905-12.648-7.094-.61-.486-1.359-.973-2.227-1.448-.458-.239-.945-.483-1.455-.705-.502-.24-1-.449-1.52-.648-1.995-.783-4.327-1.489-6.934-2.098-2.932-.705-6.263-1.303-9.906-1.78-2.129-.282-3.869-.455-4.895-.548l4.519,6.983c.123.189.103.437-.047.605-.15.168-.395.214-.596.114-.479-.239-1.728-.89-3.042-1.618-1.288-.694-2.403-1.368-3.055-1.846-.889-.643-1.25-1.65-1.542-3.065-.108-.47-.201-1.003-.306-1.61l-.048-.273c-.186-1.095-.44-2.592-.845-4.393-.112-.494-.236-1.012-.372-1.564-.854-3.411-1.89-4.382-2.609-4.595-.637-.187-1.376.108-2.205.878-.076.072-.322.397-.238,1.545.061,1.074.379,2.585.92,4.376.211.667.436,1.351.683,2.036.359.995.774,2.05,1.235,3.134.277.632.557,1.225.825,1.761,2.251,4.514,8.407,11.325,18.348,15.665,3.36,1.296,17.344,5.599,21.939,7.013l33.745,13.82c1.934.694,3.98,1.05,6.062,1.05,7.201,0,13.725-4.235,16.62-10.789l8.448-19.15c.112-.252.407-.367.659-.256.253.112.367.407.256.659l-8.448,19.15c-3.055,6.916-9.938,11.385-17.535,11.385Z"></path>
    <path class="cls-3" d="m248.431,228.165l-42.426-23.658c-1.844-1.028-1.863-3.674-.034-4.729l16.337-9.42c.832-.48,1.856-.485,2.693-.013l39.906,22.493c1.699.958,1.867,3.34.318,4.526l-13.816,10.585c-.86.659-2.03.744-2.977.216Z"></path>
    <path class="cls-3" d="m249.755,229.01c-.538,0-1.078-.135-1.567-.408l-42.426-23.658c-1.025-.572-1.643-1.614-1.651-2.788s.594-2.225,1.61-2.811l16.337-9.42c.981-.565,2.202-.571,3.188-.016l39.906,22.493c.945.532,1.554,1.496,1.63,2.578.076,1.082-.393,2.121-1.253,2.781l-13.816,10.585c-.574.44-1.264.664-1.958.664Zm-26.089-38.514c-.383,0-.767.098-1.108.295l-16.336,9.42c-.701.404-1.116,1.129-1.11,1.938s.431,1.527,1.138,1.921l42.426,23.658h0c.773.432,1.727.362,2.429-.177l13.816-10.585c.603-.461.917-1.16.864-1.917-.053-.757-.463-1.404-1.124-1.777l-39.906-22.493c-.336-.19-.712-.284-1.089-.284Z"></path>
    <path class="cls-3" d="m248.881,225.949l-42.426-23.658c-1.844-1.028-1.863-3.674-.034-4.729l16.337-9.42c.832-.48,1.856-.485,2.693-.013l39.906,22.493c1.699.958,1.867,3.34.318,4.526l-13.816,10.585c-.86.659-2.03.744-2.977.216Z"></path>
    <path class="cls-3" d="m250.205,226.793c-.538,0-1.077-.135-1.567-.408h0l-42.426-23.658c-1.025-.572-1.643-1.614-1.651-2.788s.594-2.225,1.61-2.811l16.337-9.42c.981-.565,2.203-.571,3.188-.016l39.906,22.493c.944.532,1.554,1.496,1.63,2.578.076,1.082-.392,2.121-1.253,2.781l-13.816,10.585c-.574.44-1.264.664-1.958.664Zm-1.08-1.281c.772.431,1.727.362,2.429-.177l13.816-10.585c.602-.461.917-1.16.864-1.917-.053-.757-.463-1.404-1.124-1.777l-39.906-22.493c-.679-.383-1.521-.379-2.198.011l-16.336,9.42c-.701.404-1.116,1.129-1.11,1.938s.431,1.527,1.138,1.921l42.426,23.658Z"></path>
    <path class="cls-1" d="m208.159,198.242l15-8.65c.589-.339,1.312-.343,1.904-.009l38.705,21.816c1.202.677,1.32,2.362.225,3.201l-12.677,9.712c-.609.466-1.436.526-2.105.153l-41.029-22.878c-1.304-.727-1.318-2.599-.024-3.344Z"></path>
    <path class="cls-9" d="m250.148,225.208c-.405,0-.811-.101-1.18-.307l-41.028-22.878c-.771-.43-1.236-1.215-1.243-2.098-.006-.884.447-1.674,1.212-2.116l15-8.65c.738-.426,1.658-.43,2.4-.012l38.705,21.816c.711.401,1.169,1.126,1.227,1.94.058.814-.295,1.596-.943,2.093l-12.677,9.712c-.432.331-.952.5-1.473.5Zm-41.739-26.533h0c-.45.259-.716.724-.712,1.242s.276.979.73,1.232l41.028,22.878c.495.276,1.107.232,1.558-.113l12.677-9.712c.386-.296.588-.744.554-1.229-.034-.485-.296-.901-.72-1.139l-38.705-21.816c-.436-.246-.976-.243-1.409.007l-15,8.65Z"></path>
    <polygon class="cls-10" points="247.462 219.566 214.967 201.394 226.551 194.426 258.183 212.116 247.462 219.566"></polygon>
    <path class="cls-10" d="m247.462,220.066c-.084,0-.168-.021-.244-.064l-32.495-18.172c-.155-.087-.253-.25-.256-.428s.089-.344.242-.436l11.583-6.968c.153-.092.345-.095.502-.008l31.632,17.69c.15.084.247.24.255.412.008.172-.073.337-.214.435l-10.721,7.451c-.085.059-.185.089-.285.089Zm-31.499-18.688l31.47,17.599,9.808-6.816-30.681-17.158-10.597,6.375Z"></path>
    <path class="cls-4" d="m254.604,227.204s-4.766-1.425-7.828-3.443c-1.843-1.215-5.341-3.924-6.975-10.437-1.634-6.513-4.184-5.328-5.646-3.965-1.462,1.362.432,7.792,2.537,12.013,2.106,4.221,6.178,7.339,10.351,9.333"></path>
    <path class="cls-9" d="m247.043,231.204c-.072,0-.146-.016-.215-.049-4.922-2.351-8.681-5.746-10.583-9.561-1.586-3.179-4.4-10.767-2.431-12.602,1.105-1.03,2.17-1.402,3.17-1.107,1.43.423,2.51,2.162,3.301,5.316,1.708,6.806,5.515,9.316,6.766,10.141,2.962,1.953,7.648,3.367,7.695,3.382.265.079.415.358.336.622-.079.264-.356.416-.622.336-.198-.059-4.873-1.469-7.96-3.505-1.331-.878-5.383-3.549-7.185-10.733-.857-3.417-1.896-4.388-2.615-4.601-.634-.186-1.376.108-2.205.879-1.053.981.257,6.639,2.644,11.424,1.804,3.616,5.397,6.849,10.119,9.104.25.119.355.417.236.667-.086.179-.265.284-.452.284Z"></path>
    <path class="cls-9" d="m344.327,227.812c-2.501,0-9.908-.427-17.493-5.002-5.317-3.208-8.451-5.995-8.481-6.022-.206-.184-.223-.5-.039-.706.185-.206.501-.223.706-.039.03.027,3.101,2.756,8.331,5.911,7.899,4.765,15.809,4.883,17.469,4.85l11.054-29.774c.096-.259.386-.39.643-.295.259.096.391.384.295.643l-11.171,30.088c-.069.185-.24.312-.437.325-.063.004-.369.022-.877.022Z"></path>
    <path class="cls-15" d="m301.565,449.883c-.166,0-.334-.042-.489-.128-.481-.271-.653-.88-.382-1.362l46.849-83.373c.171-.304.489-.498.838-.51.348-.003.679.16.871.452l54.556,83.373c.302.462.173,1.082-.29,1.384-.461.303-1.082.173-1.384-.289l-53.654-81.995-46.042,81.938c-.183.326-.523.51-.873.51Z"></path>
    <path class="cls-15" d="m249.627,310.357c13.882,33.039,46.546,56.24,84.629,56.24,50.675,0,91.756-41.08,91.756-91.756,0-24.708-9.766-47.135-25.649-63.632,0,0-15.164,47.758-61.162,71.803-45.998,24.044-89.574,27.345-89.574,27.345Z"></path>
    <path class="cls-9" d="m334.256,367.097c-37.257,0-70.657-22.196-85.09-56.546-.062-.148-.049-.317.034-.454.084-.137.229-.226.389-.238.435-.033,44.008-3.573,89.38-27.29,45.278-23.668,60.766-71.035,60.917-71.511.053-.168.191-.295.363-.335.171-.04.352.013.474.14,16.63,17.273,25.789,39.994,25.789,63.979,0,50.87-41.386,92.256-92.255,92.256Zm-83.901-56.303c14.419,33.617,47.277,55.303,83.901,55.303,50.318,0,91.255-40.937,91.255-91.256,0-23.451-8.852-45.681-24.943-62.692-2.244,6.338-18.719,49.133-61.136,71.306-42.431,22.18-83.306,26.784-89.077,27.339Z"></path>
    <circle class="cls-4" cx="349.016" cy="122.268" r="31.886"></circle>
    <path class="cls-9" d="m349.016,154.654c-17.858,0-32.386-14.528-32.386-32.386s14.528-32.386,32.386-32.386,32.386,14.528,32.386,32.386-14.528,32.386-32.386,32.386Zm0-63.772c-17.307,0-31.386,14.08-31.386,31.386s14.08,31.386,31.386,31.386,31.386-14.08,31.386-31.386-14.08-31.386-31.386-31.386Z"></path>
    <path class="cls-9" d="m329.776,131.766c0,1.089-.883,1.971-1.971,1.971-1.089,0-1.971-.883-1.971-1.971s.883-1.971,1.971-1.971c1.089,0,1.971.883,1.971,1.971Z"></path>
    <path class="cls-9" d="m327.805,134.237c-1.363,0-2.471-1.109-2.471-2.471s1.108-2.471,2.471-2.471,2.471,1.109,2.471,2.471-1.108,2.471-2.471,2.471Zm0-3.943c-.811,0-1.471.66-1.471,1.471s.66,1.471,1.471,1.471,1.471-.66,1.471-1.471-.66-1.471-1.471-1.471Z"></path>
    <path class="cls-19" d="m317.516,119.904c-1.451,0-2.609-1.238-2.496-2.684,1.369-17.577,16.064-31.413,33.993-31.413,0,0,.002,0,.003,0v-.003c12.948,0,24.209,7.216,29.982,17.845,2.626,4.832,4.117,10.369,4.117,16.255h0v119.782h-34.099v-112.77c0-3.873-3.139-7.012-7.012-7.012h-24.487Z"></path>
    <path class="cls-9" d="m383.115,240.186h-34.1c-.276,0-.5-.224-.5-.5v-112.77c0-3.591-2.921-6.512-6.512-6.512h-24.487c-.834,0-1.639-.352-2.207-.966-.564-.61-.852-1.433-.788-2.257,1.391-17.855,16.514-31.846,34.44-31.874.018-.002.036-.003.055-.003,12.698,0,24.355,6.938,30.422,18.106,2.733,5.03,4.178,10.733,4.178,16.494v119.782c0,.276-.224.5-.5.5Zm-33.6-1h33.1v-119.282c0-5.594-1.402-11.132-4.056-16.016-5.883-10.83-17.179-17.564-29.489-17.584-.018.002-.036.003-.054.003-17.433,0-32.146,13.595-33.498,30.951-.043.555.143,1.088.525,1.5.379.41.916.646,1.473.646h24.487c4.142,0,7.512,3.37,7.512,7.512v112.27Z"></path>
    <path class="cls-4" d="m348.133,127.907c3.867,0,7.002,3.135,7.002,7.002,0,3.867-3.135,7.002-7.002,7.002"></path>
    <path class="cls-9" d="m348.133,142.411c-.276,0-.5-.224-.5-.5s.224-.5.5-.5c3.585,0,6.502-2.917,6.502-6.502s-2.917-6.502-6.502-6.502c-.276,0-.5-.224-.5-.5s.224-.5.5-.5c4.137,0,7.502,3.365,7.502,7.502s-3.365,7.502-7.502,7.502Z"></path>
    <path class="cls-4" d="m348.133,131.766c1.736,0,3.143,1.407,3.143,3.143s-1.407,3.143-3.143,3.143"></path>
    <path class="cls-9" d="m348.133,138.552c-.276,0-.5-.224-.5-.5s.224-.5.5-.5c1.458,0,2.643-1.186,2.643-2.643s-1.186-2.643-2.643-2.643c-.276,0-.5-.224-.5-.5s.224-.5.5-.5c2.009,0,3.643,1.634,3.643,3.643s-1.634,3.643-3.643,3.643Z"></path>
  </g>
</svg>
