<svg width="105" height="63" viewBox="0 0 105 63" fill="none" xmlns="http://www.w3.org/2000/svg">
<path d="M42.2926 34.4119C42.1316 33.8153 41.8949 33.2898 41.5824 32.8352C41.2699 32.3712 40.8864 31.9782 40.4318 31.6562C39.9773 31.3343 39.4564 31.0928 38.8693 30.9318C38.2822 30.7614 37.6383 30.6761 36.9375 30.6761C35.5265 30.6761 34.3049 31.017 33.2727 31.6989C32.25 32.3807 31.4593 33.375 30.9006 34.6818C30.3419 35.9792 30.0625 37.5559 30.0625 39.4119C30.0625 41.2775 30.3324 42.8684 30.8722 44.1847C31.4119 45.5009 32.1932 46.5047 33.2159 47.196C34.2386 47.8873 35.4792 48.233 36.9375 48.233C38.2254 48.233 39.3144 48.0246 40.2045 47.608C41.1042 47.1818 41.786 46.5805 42.25 45.804C42.714 45.0275 42.946 44.1136 42.946 43.0625L44.2528 43.2188H37.179V38.0909H49.7216V41.9403C49.7216 44.5445 49.1676 46.7746 48.0597 48.6307C46.9612 50.4867 45.446 51.9119 43.5142 52.9062C41.5919 53.9006 39.3807 54.3977 36.8807 54.3977C34.1061 54.3977 31.6676 53.7964 29.5653 52.5938C27.4631 51.3911 25.8248 49.6771 24.6506 47.4517C23.4763 45.2169 22.8892 42.5653 22.8892 39.4972C22.8892 37.1108 23.2443 34.9943 23.9545 33.1477C24.6648 31.2917 25.6544 29.7197 26.9233 28.4318C28.2017 27.1439 29.679 26.1686 31.3551 25.5057C33.0407 24.8428 34.8542 24.5114 36.7955 24.5114C38.4811 24.5114 40.0483 24.7528 41.4972 25.2358C42.9555 25.7188 44.2434 26.4006 45.3608 27.2812C46.4877 28.1619 47.4015 29.2083 48.1023 30.4205C48.803 31.6326 49.2386 32.9631 49.4091 34.4119H42.2926ZM53.8658 54V24.9091H65.9964C68.1745 24.9091 69.9974 25.2169 71.4652 25.8324C72.9425 26.4479 74.0504 27.3097 74.7891 28.4176C75.5372 29.5256 75.9112 30.8087 75.9112 32.267C75.9112 33.375 75.6792 34.3646 75.2152 35.2358C74.7512 36.0975 74.112 36.8125 73.2976 37.3807C72.4832 37.9489 71.541 38.3466 70.4709 38.5739V38.858C71.6451 38.9148 72.7294 39.232 73.7237 39.8097C74.7275 40.3873 75.5324 41.1922 76.1385 42.2244C76.7446 43.2472 77.0476 44.4593 77.0476 45.8608C77.0476 47.4233 76.6499 48.8201 75.8544 50.0511C75.0589 51.2727 73.9084 52.2386 72.4027 52.9489C70.897 53.6496 69.0694 54 66.9197 54H53.8658ZM60.897 48.3324H65.2436C66.7682 48.3324 67.8904 48.0436 68.6101 47.4659C69.3393 46.8883 69.7038 46.0833 69.7038 45.0511C69.7038 44.303 69.5286 43.6591 69.1783 43.1193C68.8279 42.5701 68.3307 42.1487 67.6868 41.8551C67.0429 41.5521 66.2711 41.4006 65.3714 41.4006H60.897V48.3324ZM60.897 36.8693H64.7891C65.5561 36.8693 66.2379 36.7415 66.8345 36.4858C67.4311 36.2301 67.8951 35.8608 68.2266 35.3778C68.5675 34.8949 68.7379 34.3125 68.7379 33.6307C68.7379 32.6553 68.3923 31.8883 67.701 31.3295C67.0097 30.7708 66.0769 30.4915 64.9027 30.4915H60.897V36.8693ZM96.1527 33.6307C96.058 32.589 95.6366 31.7794 94.8885 31.2017C94.1499 30.6146 93.094 30.321 91.7209 30.321C90.8118 30.321 90.0542 30.4394 89.4482 30.6761C88.8421 30.9129 88.3875 31.2396 88.0845 31.6562C87.7815 32.0634 87.6252 32.5322 87.6158 33.0625C87.5968 33.4981 87.6821 33.8816 87.8714 34.2131C88.0703 34.5445 88.3544 34.8381 88.7237 35.0938C89.1025 35.34 89.5571 35.5578 90.0874 35.7472C90.6177 35.9366 91.2143 36.1023 91.8771 36.2443L94.3771 36.8125C95.8165 37.125 97.0855 37.5417 98.1839 38.0625C99.2919 38.5833 100.22 39.2036 100.968 39.9233C101.726 40.643 102.299 41.4716 102.687 42.4091C103.075 43.3466 103.274 44.3977 103.283 45.5625C103.274 47.3996 102.81 48.9763 101.891 50.2926C100.973 51.6089 99.6518 52.6174 97.9283 53.3182C96.2143 54.0189 94.1451 54.3693 91.7209 54.3693C89.2872 54.3693 87.166 54.0047 85.3572 53.2756C83.5485 52.5464 82.1423 51.4384 81.1385 49.9517C80.1347 48.465 79.6186 46.5852 79.5902 44.3125H86.3232C86.38 45.25 86.6309 46.0312 87.076 46.6562C87.5211 47.2812 88.1319 47.7547 88.9084 48.0767C89.6944 48.3987 90.6035 48.5597 91.6357 48.5597C92.5826 48.5597 93.3875 48.4318 94.0504 48.1761C94.7228 47.9205 95.2389 47.5653 95.5987 47.1108C95.9586 46.6562 96.1432 46.1354 96.1527 45.5483C96.1432 44.9991 95.9728 44.5303 95.6413 44.142C95.3099 43.7443 94.7985 43.4034 94.1072 43.1193C93.4254 42.8258 92.5542 42.5559 91.4936 42.3097L88.4538 41.5994C85.9349 41.0218 83.951 40.089 82.5021 38.8011C81.0533 37.5038 80.3336 35.7519 80.343 33.5455C80.3336 31.7462 80.8165 30.1695 81.7919 28.8153C82.7673 27.4612 84.1167 26.4053 85.8402 25.6477C87.5637 24.8902 89.5286 24.5114 91.7351 24.5114C93.9889 24.5114 95.9444 24.8949 97.6016 25.6619C99.2682 26.4195 100.561 27.4848 101.479 28.858C102.398 30.2311 102.867 31.822 102.886 33.6307H96.1527Z" fill="white"/>
<path d="M40.5287 20.218L38.2645 21.0719L22.1434 27.1516L19.7887 28.0396C17.2527 28.996 15.8089 31.2023 16.5073 33.054C17.2056 34.9057 19.7468 35.6092 22.2827 34.6529L24.6375 33.7649L40.8491 27.651L43.1133 26.7972C45.6492 25.8408 47.093 23.6345 46.3947 21.7827C45.6058 19.9652 43.0646 19.2617 40.5287 20.218Z" fill="white"/>
<path d="M21.2519 8.6032L12.1951 12.0187L6.76099 14.0681L8.2574 18.036C11.2461 16.9089 14.3649 17.7723 15.1879 19.9547L16.1855 22.6L18.4301 28.552L41.9778 19.6716L39.7332 13.7196C37.5384 7.8999 29.2218 5.59752 21.2519 8.6032Z" fill="#EF1D1D" stroke="black" stroke-miterlimit="10"/>
<path d="M22.2823 8.59229C25.1083 8.13084 27.8371 8.2348 30.2628 8.90632C33.7031 9.79952 36.4465 11.862 37.5937 14.9041L39.7136 20.5254L41.9778 19.6715L39.7332 13.7196C38.6608 10.8759 36.1484 8.87732 32.9798 7.88166C29.7955 7.11856 26.0454 7.32418 22.2823 8.59229Z" fill="#C60D09"/>
<path opacity="0.5" d="M19.9002 24.2206L20.399 25.5433" stroke="white" stroke-width="2" stroke-miterlimit="10" stroke-linecap="round"/>
<path opacity="0.5" d="M13.954 15.5855C15.8021 16.0972 17.2814 17.2767 17.905 18.93L18.9026 21.5753" stroke="white" stroke-width="2" stroke-miterlimit="10" stroke-linecap="round"/>
<path opacity="0.5" d="M38.0138 17.3896C38.2881 18.117 37.6975 19.0196 36.7012 19.3954" stroke="white" stroke-width="2" stroke-miterlimit="10" stroke-linecap="round"/>
<path d="M21.2519 8.6032L12.1951 12.0187L6.76099 14.0681L8.2574 18.036C11.2461 16.9089 14.3649 17.7723 15.1879 19.9547L16.1855 22.6L18.4301 28.552L41.9778 19.6716L39.7332 13.7196C37.5384 7.8999 29.2218 5.59752 21.2519 8.6032Z" stroke="#231F20" stroke-miterlimit="10"/>
<path d="M7.85052 19.7002C10.3515 18.757 11.8206 16.512 11.1319 14.6858C10.4432 12.8596 7.85746 12.1437 5.35649 13.0869C2.85553 14.0301 1.3864 16.2751 2.07511 18.1013C2.76382 19.9275 5.34956 20.6434 7.85052 19.7002Z" fill="white"/>
<path opacity="0.5" d="M5.35649 13.0869C4.99422 13.2235 4.65689 13.4263 4.22899 13.6632C6.37113 13.3086 8.29408 14.0186 8.86771 15.5397C9.44133 17.0607 8.49105 18.9299 6.62326 20.012C7.01047 19.9415 7.39768 19.871 7.85052 19.7002C10.3864 18.7439 11.8302 16.5375 11.1319 14.6858C10.4336 12.8341 7.8924 12.1306 5.35649 13.0869Z" fill="#B2B1CF"/>
<path opacity="0.5" d="M4.79214 17.0767C4.5178 16.3492 5.10845 15.4466 6.10469 15.0709" stroke="#F79292" stroke-width="2" stroke-miterlimit="10" stroke-linecap="round" stroke-linejoin="round"/>
<path d="M7.85052 19.7002C10.3515 18.757 11.8206 16.512 11.1319 14.6858C10.4432 12.8596 7.85746 12.1437 5.35649 13.0869C2.85553 14.0301 1.3864 16.2751 2.07511 18.1013C2.76382 19.9275 5.34956 20.6434 7.85052 19.7002Z" stroke="#231F20" stroke-miterlimit="10"/>
<path opacity="0.5" d="M40.6193 20.1839L38.3551 21.0378C40.891 20.0814 43.4322 20.7849 44.1305 22.6367C44.8288 24.4884 43.385 26.6947 40.8491 27.6511L43.1133 26.7972C45.6492 25.8408 47.093 23.6345 46.3947 21.7828C45.6964 19.9311 43.1552 19.2275 40.6193 20.1839Z" fill="#B2B1CF"/>
<path opacity="0.5" d="M43.6777 22.8074C43.952 23.5348 43.3614 24.4374 42.3651 24.8131" stroke="#F79292" stroke-width="2" stroke-miterlimit="10" stroke-linecap="round" stroke-linejoin="round"/>
<path opacity="0.5" d="M19.2243 32.0293C18.95 31.3019 19.5406 30.3993 20.5369 30.0236" stroke="#F79292" stroke-width="2" stroke-miterlimit="10" stroke-linecap="round" stroke-linejoin="round"/>
<path d="M40.5287 20.218L38.2645 21.0719L22.1434 27.1516L19.7887 28.0396C17.2527 28.996 15.8089 31.2023 16.5073 33.054C17.2056 34.9057 19.7468 35.6092 22.2827 34.6529L24.6375 33.7649L40.8491 27.651L43.1133 26.7972C45.6492 25.8408 47.093 23.6345 46.3947 21.7827C45.6058 19.9652 43.0646 19.2617 40.5287 20.218Z" stroke="#1C1C1A" stroke-miterlimit="10"/>
</svg>
